<?xml version="1.0" standalone="no"?>
<!DOCTYPE svg PUBLIC "-//W3C//DTD SVG 20010904//EN"
 "http://www.w3.org/TR/2001/REC-SVG-20010904/DTD/svg10.dtd">
<svg version="1.0" xmlns="http://www.w3.org/2000/svg"
 width="413.000000pt" height="413.000000pt" viewBox="0 0 413.000000 413.000000"
 preserveAspectRatio="xMidYMid meet">
<metadata>
Created by potrace 1.11, written by Peter Selinger 2001-2013
</metadata>
<g transform="translate(0.000000,413.000000) scale(0.100000,-0.100000)"
fill="#000000" stroke="none">
<path d="M1897 3895 c-48 -15 -75 -38 -97 -81 -19 -36 -20 -61 -20 -459 l0
-420 -847 -1 c-467 0 -860 -3 -875 -7 -57 -15 -55 30 -54 -1134 l1 -1072 23
-23 23 -23 367 -2 c202 -1 373 -2 380 -2 9 -1 12 -45 12 -186 0 -199 6 -227
49 -245 38 -15 97 11 167 75 6 6 112 88 235 184 l225 174 407 1 406 1 23 23
23 23 0 454 c1 250 4 457 8 461 9 10 194 4 223 -7 14 -5 125 -88 246 -185 122
-97 236 -183 254 -191 64 -31 138 7 153 79 3 18 6 95 6 171 -1 132 -1 137 19
138 12 0 179 0 371 0 372 1 402 4 451 50 48 45 47 33 47 1089 0 1122 6 1045
-77 1098 l-41 26 -1038 1 c-672 0 -1049 -3 -1070 -10z m2061 -1120 l-3 -970
-380 -1 c-424 0 -418 1 -472 -70 -25 -34 -27 -44 -31 -153 -2 -64 -5 -117 -7
-119 -1 -1 -87 65 -191 148 -129 102 -207 157 -244 172 -52 20 -74 21 -370 22
l-315 1 -2 967 -2 967 22 3 c12 2 466 3 1010 3 l987 0 -2 -970z m-2185 -4 c4
-1 7 -227 7 -503 l0 -501 25 -42 c40 -68 80 -83 235 -83 71 0 133 -3 137 -5 9
-6 10 -778 1 -792 -4 -7 -138 -10 -368 -10 -224 0 -370 -4 -385 -10 -12 -5
-38 -22 -56 -37 -19 -15 -92 -72 -164 -128 -71 -55 -137 -106 -145 -113 -8 -7
-32 -25 -52 -40 l-37 -29 0 150 c0 158 -6 185 -46 199 -11 4 -182 8 -380 9
-198 1 -365 2 -370 3 -7 1 -10 330 -10 966 0 958 0 964 20 967 16 2 1559 1
1588 -1z"/>
<path d="M2310 3380 c0 -22 3 -40 8 -41 27 -3 380 -4 395 -1 12 3 17 14 17 43
l0 39 -210 0 -210 0 0 -40z"/>
<path d="M2850 3370 l0 -46 118 0 117 1 -1 -30 c-2 -39 -15 -128 -20 -137 -2
-3 -44 -6 -92 -5 l-87 2 -3 -48 -3 -47 87 0 c65 0 85 -3 81 -12 -2 -7 -12 -59
-22 -115 l-18 -102 -106 -3 -106 -3 -1 -42 c0 -23 4 -44 10 -46 6 -2 202 -3
436 -3 l425 1 3 48 3 47 -78 0 -79 0 1 160 c1 138 -1 160 -14 161 -9 0 -85 1
-168 0 -87 0 -155 4 -159 10 -6 10 13 149 22 158 2 3 95 5 207 5 l202 1 3 46
3 46 -381 0 -380 0 0 -47z m566 -425 l-1 -115 -152 0 c-84 0 -153 2 -153 4 0
2 7 41 16 87 9 46 18 93 19 104 1 11 3 23 4 28 0 4 61 7 134 7 l133 0 0 -115z"/>
<path d="M2240 3212 c-15 -2 -20 -58 -7 -78 3 -5 126 -9 279 -8 l273 0 0 44 0
45 -265 0 c-146 0 -272 -1 -280 -3z"/>
<path d="M2302 2958 l3 -43 215 0 215 0 1 43 2 42 -220 0 -219 0 3 -42z"/>
<path d="M2300 2744 l0 -44 218 3 217 2 0 40 0 40 -217 2 -218 1 0 -44z"/>
<path d="M2919 2602 c-1 -4 -2 -130 -3 -280 l-1 -273 50 3 c49 3 50 3 49 36
l-1 32 224 0 223 0 0 -30 c0 -29 1 -30 50 -30 28 0 50 3 50 8 1 11 1 378 1
464 l-1 76 -320 0 c-176 0 -321 -3 -321 -6z m536 -237 l0 -150 -213 0 c-117 0
-216 2 -220 5 -4 3 -8 69 -8 147 l-1 142 26 3 c14 2 114 3 221 3 l195 0 0
-150z"/>
<path d="M2302 2562 c-2 -8 -5 -126 -6 -263 l-1 -249 48 0 c26 0 46 3 46 8 -1
4 -1 21 0 37 l1 30 175 -1 175 -1 -2 226 -3 226 -214 0 c-173 1 -214 -2 -219
-13z m348 -213 l0 -137 -127 1 -128 2 -3 136 -3 137 131 -1 130 0 0 -138z"/>
<path d="M1120 2370 l-54 -5 -209 -521 -208 -522 -47 -17 c-63 -24 -72 -32
-72 -66 l0 -29 202 2 202 3 2 29 c1 24 -5 31 -41 47 -23 10 -53 20 -66 22 -12
2 -24 8 -26 13 -2 6 17 64 41 129 l44 120 182 0 182 0 44 -120 c44 -119 48
-145 20 -145 -8 0 -35 -9 -60 -20 -40 -17 -46 -23 -46 -50 l0 -30 255 0 255 0
0 34 c0 32 -3 36 -47 51 -27 9 -54 20 -62 24 -8 4 -47 92 -88 196 -41 105
-100 258 -132 340 -33 83 -89 229 -126 325 -38 96 -73 180 -79 185 -6 6 -35 8
-66 5z m-24 -311 c8 -35 37 -129 64 -208 28 -79 50 -149 50 -155 0 -8 -43 -11
-140 -11 -121 0 -139 2 -134 15 3 8 12 33 19 55 7 22 31 90 53 150 22 61 45
136 52 168 7 31 15 55 17 53 2 -2 11 -33 19 -67z"/>
</g>
</svg>
